<?xml version="1.0" encoding="utf-8"?>
<!-- Generator: Adobe Illustrator 25.0.1, SVG Export Plug-In . SVG Version: 6.00 Build 0)  -->
<svg version="1.1" id="Ebene_1" xmlns="http://www.w3.org/2000/svg" xmlns:xlink="http://www.w3.org/1999/xlink" x="0px" y="0px"
	 viewBox="0 0 79.1 60.4" style="enable-background:new 0 0 79.1 60.4;" xml:space="preserve">
<style type="text/css">
	.st0{fill:#FFFFFF;}
	.st1{font-family:'Arial-Black';}
	.st2{font-size:66px;}
</style>
<g id="kNDjK0.tif">
	<g>
		<path class="st0" d="M3.5,21.8C4,13,7.7,7.3,15,4.5C22,1.9,28.6,3,34.2,8.4c5.3,5.2,7.1,12.7,4.1,19.5
			c-3.8,8.7-7.9,17.3-12.2,25.8c-2.3,4.6-6.7,4.7-9,0.2c-4.4-8.8-8.5-17.8-12.5-26.8C3.8,25.2,3.7,23,3.5,21.8z M21.5,12.3
			c-4.9,0-8.7,3.8-8.8,8.7c-0.1,5.1,3.8,9.2,8.8,9.1c4.8,0,8.9-4,9-8.7C30.7,16.6,26.5,12.3,21.5,12.3z"/>
	</g>
</g>
<text transform="matrix(1 0 0 1 35.8419 51.6614)" class="st0 st1 st2">+</text>
</svg>
